<?xml version="1.0" encoding="UTF-8"?>
<svg xmlns="http://www.w3.org/2000/svg" width="134" height="40" viewBox="0 0 134 40" fill="none">
  <path d="M51.3828 6.20093H55.2104V15.7761C56.8613 13.5556 59.2796 12.3411 62.1778 12.3411C67.9375 12.3411 72.6487 17.2299 72.6487 23.1308C72.6487 29.1115 68.0965 33.7979 62.2175 33.7979C60.3251 33.7979 58.4327 33.2735 56.9408 32.384C56.1765 31.9393 55.7332 31.4946 54.8864 30.4027V33.2704H51.3828V6.20093ZM61.976 30.323C65.7211 30.323 68.8639 27.0505 68.8639 23.091C68.8639 19.0916 65.7639 15.8191 61.976 15.8191C58.1912 15.8191 55.0881 19.0517 55.0881 23.0112C55.0881 27.1302 58.1086 30.323 61.976 30.323Z" fill="#1B0061"></path>
  <path d="M84.4678 30.3231C86.883 30.3231 88.8977 29.1117 90.1878 26.8881H94.0154C92.444 31.1297 88.6989 33.7981 84.3088 33.7981C78.6714 33.7981 73.9969 28.9491 73.9969 23.0911C73.9969 17.0706 78.6286 12.2615 84.3883 12.2615C90.0258 12.2615 94.6574 17.0307 94.6574 22.8488C94.6574 23.2138 94.6177 24.0603 94.5382 24.7902H77.8245C78.6286 28.1425 81.2455 30.3231 84.4678 30.3231ZM90.9124 21.8796C90.7106 18.5274 87.7696 15.7364 84.3455 15.7364C82.4929 15.7364 80.6402 16.586 79.3929 17.96C78.4268 19.012 78.063 19.9413 77.7817 21.8796H90.9124Z" fill="#1B0061"></path>
  <path d="M113.905 30.0808C112.334 32.5466 109.757 33.798 106.293 33.798C100.454 33.798 95.9812 29.1913 95.9812 23.1708C95.9812 20.5454 96.9075 18.0397 98.5584 16.0185C100.573 13.6354 103.23 12.4209 106.571 12.4209C109.592 12.4209 112.573 13.8348 113.902 15.8958V12.9454H117.406V33.2705H113.902V30.0808H113.905ZM106.657 30.3231C110.442 30.3231 113.624 27.1303 113.624 23.2935C113.624 19.1315 110.604 15.8989 106.657 15.8989C102.829 15.8989 99.769 19.1315 99.769 23.1708C99.769 27.0904 102.909 30.3231 106.657 30.3231Z" fill="#1B0061"></path>
  <path d="M124.288 16.4233H118.993V12.9484H124.288V6.20093H128.072V12.9484H133.334V16.4233H128.072V33.2735H124.288V16.4233Z" fill="#1B0061"></path>
  <path d="M15.8613 14.3011L11.9023 14.2551C11.9053 13.9638 12.0674 7.05378 19.0653 2.42872C19.5972 2.06988 27.5367 -3.07044 36.3934 2.78449L34.2137 6.103C27.4297 1.61903 21.3398 5.67975 21.2787 5.72269L21.2512 5.74109C15.9806 9.21602 15.8613 14.2521 15.8613 14.3011Z" fill="#A841FD"></path>
  <path d="M28.0595 39.9995L26.2558 36.4632C33.483 32.7552 33.0795 25.7624 33.0733 25.6919L33.0703 25.6183C32.8532 19.2511 28.3867 16.4203 28.3408 16.3927L30.4166 13.0098C30.6734 13.1693 36.7267 17 37.0263 25.4557C37.0721 26.2623 37.3565 35.2303 28.0595 39.9995Z" fill="#5421AD"></path>
  <path d="M15.3355 31.142C9.94868 31.142 6.67137 28.3695 6.21585 27.9585C-1.2009 21.6036 0.0586664 14.2152 0.113696 13.9023L4.00856 14.6231L2.06113 14.2612L4.01162 14.6047C3.97493 14.8286 3.17089 20.1407 8.80529 24.9559L8.87561 25.0172C9.0407 25.1675 13.3208 28.946 20.5388 26.106L21.9848 29.8048C19.5146 30.7771 17.2859 31.142 15.3355 31.142Z" fill="#34D1FD"></path>
</svg>
